<svg width="111" height="32" viewBox="0 0 111 32" fill="none" xmlns="http://www.w3.org/2000/svg">
<path d="M3.26633e-05 8.8125V6.54545H13.5086V8.8125H8.06253V24H5.43753V8.8125H3.26633e-05ZM19.4327 24.2642C18.1429 24.2642 17.0321 23.9886 16.1003 23.4375C15.1742 22.8807 14.4583 22.0994 13.9526 21.0938C13.4526 20.0824 13.2026 18.8977 13.2026 17.5398C13.2026 16.1989 13.4526 15.017 13.9526 13.9943C14.4583 12.9716 15.1628 12.1733 16.0662 11.5994C16.9753 11.0256 18.0378 10.7386 19.2537 10.7386C19.9924 10.7386 20.7083 10.8608 21.4015 11.1051C22.0946 11.3494 22.7168 11.733 23.2679 12.2557C23.8191 12.7784 24.2537 13.4574 24.5719 14.2926C24.8901 15.1222 25.0492 16.1307 25.0492 17.3182V18.2216H14.6429V16.3125H22.552C22.552 15.642 22.4157 15.0483 22.1429 14.5312C21.8702 14.0085 21.4867 13.5966 20.9924 13.2955C20.5037 12.9943 19.9299 12.8438 19.2708 12.8438C18.5549 12.8438 17.9299 13.0199 17.3958 13.3722C16.8674 13.7187 16.4583 14.1733 16.1685 14.7358C15.8844 15.2926 15.7424 15.8977 15.7424 16.5511V18.0426C15.7424 18.9176 15.8958 19.6619 16.2026 20.2756C16.5151 20.8892 16.9497 21.358 17.5066 21.6818C18.0634 22 18.714 22.1591 19.4583 22.1591C19.9412 22.1591 20.3816 22.0909 20.7793 21.9545C21.177 21.8125 21.5208 21.6023 21.8105 21.3239C22.1003 21.0455 22.3219 20.7017 22.4753 20.2926L24.8872 20.7273C24.6941 21.4375 24.3475 22.0597 23.8475 22.5938C23.3532 23.1222 22.731 23.5341 21.981 23.8295C21.2367 24.1193 20.3872 24.2642 19.4327 24.2642ZM32.7908 24.2642C31.5238 24.2642 30.4328 23.9773 29.5181 23.4034C28.609 22.8239 27.9101 22.0256 27.4215 21.0085C26.9328 19.9915 26.6885 18.8267 26.6885 17.5142C26.6885 16.1847 26.9385 15.0114 27.4385 13.9943C27.9385 12.9716 28.6431 12.1733 29.5522 11.5994C30.4613 11.0256 31.5323 10.7386 32.7652 10.7386C33.7595 10.7386 34.6459 10.9233 35.4243 11.2926C36.2027 11.6562 36.8306 12.1676 37.3078 12.8267C37.7908 13.4858 38.0777 14.2557 38.1686 15.1364H35.6885C35.5522 14.5227 35.2397 13.9943 34.751 13.5511C34.2681 13.108 33.6203 12.8864 32.8078 12.8864C32.0976 12.8864 31.4755 13.0739 30.9414 13.4489C30.413 13.8182 30.001 14.3466 29.7056 15.0341C29.4101 15.7159 29.2624 16.5227 29.2624 17.4545C29.2624 18.4091 29.4073 19.233 29.697 19.9261C29.9868 20.6193 30.3959 21.1562 30.9243 21.5369C31.4584 21.9176 32.0863 22.108 32.8078 22.108C33.2908 22.108 33.7283 22.0199 34.1203 21.8438C34.5181 21.6619 34.8505 21.4034 35.1175 21.0682C35.3902 20.733 35.5806 20.3295 35.6885 19.858H38.1686C38.0777 20.7045 37.8022 21.4602 37.3419 22.125C36.8817 22.7898 36.2652 23.3125 35.4925 23.6932C34.7255 24.0739 33.8249 24.2642 32.7908 24.2642ZM42.8421 16.2273V24H40.2938V6.54545H42.808V13.0398H42.9699C43.2767 12.3352 43.7455 11.7756 44.3762 11.3608C45.0069 10.946 45.8307 10.7386 46.8478 10.7386C47.7455 10.7386 48.5296 10.9233 49.2 11.2926C49.8762 11.6619 50.3989 12.2131 50.7682 12.946C51.1432 13.6733 51.3307 14.5824 51.3307 15.6733V24H48.7824V15.9801C48.7824 15.0199 48.5353 14.2756 48.0409 13.7472C47.5466 13.2131 46.8591 12.946 45.9784 12.946C45.3762 12.946 44.8364 13.0739 44.3591 13.3295C43.8875 13.5852 43.5154 13.9602 43.2426 14.4545C42.9756 14.9432 42.8421 15.5341 42.8421 16.2273ZM63.8557 11.1307C63.7648 10.3239 63.3898 9.69886 62.7307 9.25568C62.0716 8.80682 61.2421 8.58239 60.2421 8.58239C59.5262 8.58239 58.9068 8.69602 58.3841 8.92329C57.8614 9.14489 57.4551 9.4517 57.1654 9.84375C56.8813 10.2301 56.7392 10.6705 56.7392 11.1648C56.7392 11.5795 56.8358 11.9375 57.029 12.2386C57.2279 12.5398 57.4864 12.7926 57.8046 12.9972C58.1284 13.196 58.475 13.3636 58.8443 13.5C59.2137 13.6307 59.5688 13.7386 59.9097 13.8239L61.6142 14.267C62.1711 14.4034 62.7421 14.5881 63.3273 14.821C63.9125 15.054 64.4551 15.3608 64.9551 15.7415C65.4551 16.1222 65.8586 16.5938 66.1654 17.1562C66.4779 17.7188 66.6341 18.392 66.6341 19.1761C66.6341 20.1648 66.3784 21.0426 65.8671 21.8097C65.3614 22.5767 64.6256 23.1818 63.6597 23.625C62.6995 24.0682 61.5375 24.2898 60.1739 24.2898C58.8671 24.2898 57.7364 24.0824 56.7818 23.6676C55.8273 23.2528 55.0801 22.6648 54.5404 21.9034C54.0006 21.1364 53.7023 20.2273 53.6455 19.1761H56.2875C56.3387 19.8068 56.5432 20.3324 56.9012 20.7528C57.2648 21.1676 57.7279 21.4773 58.2904 21.6818C58.8586 21.8807 59.4807 21.9801 60.1568 21.9801C60.9012 21.9801 61.5631 21.8636 62.1426 21.6307C62.7279 21.392 63.1881 21.0625 63.5233 20.642C63.8586 20.2159 64.0262 19.7187 64.0262 19.1506C64.0262 18.6335 63.8784 18.2102 63.583 17.8807C63.2932 17.5511 62.8983 17.2784 62.3983 17.0625C61.904 16.8466 61.3443 16.6562 60.7193 16.4915L58.6568 15.929C57.2591 15.5483 56.1512 14.9886 55.333 14.25C54.5205 13.5114 54.1142 12.5341 54.1142 11.3182C54.1142 10.3125 54.387 9.43466 54.9324 8.68466C55.4779 7.93466 56.2165 7.35227 57.1483 6.9375C58.0801 6.51705 59.1313 6.30682 60.3017 6.30682C61.4836 6.30682 62.5262 6.5142 63.4296 6.92898C64.3387 7.34375 65.0546 7.91477 65.5773 8.64204C66.1 9.36364 66.3728 10.1932 66.3955 11.1307H63.8557ZM75.0874 10.9091V12.9545H67.9368V10.9091H75.0874ZM69.8544 7.77273H72.4027V20.1562C72.4027 20.6506 72.4766 21.0227 72.6243 21.2727C72.772 21.517 72.9624 21.6847 73.1953 21.7756C73.434 21.8608 73.6925 21.9034 73.9709 21.9034C74.1755 21.9034 74.3544 21.8892 74.5078 21.8608C74.6613 21.8324 74.7806 21.8097 74.8658 21.7926L75.326 23.8977C75.1783 23.9545 74.9681 24.0114 74.6953 24.0682C74.4226 24.1307 74.0817 24.1648 73.6726 24.1705C73.0022 24.1818 72.3772 24.0625 71.7976 23.8125C71.2181 23.5625 70.7493 23.1761 70.3914 22.6534C70.0334 22.1307 69.8544 21.4744 69.8544 20.6847V7.77273ZM82.6799 24.2642C81.4526 24.2642 80.3816 23.983 79.4668 23.4205C78.552 22.858 77.8418 22.071 77.3361 21.0597C76.8304 20.0483 76.5776 18.8665 76.5776 17.5142C76.5776 16.1562 76.8304 14.9687 77.3361 13.9517C77.8418 12.9347 78.552 12.1449 79.4668 11.5824C80.3816 11.0199 81.4526 10.7386 82.6799 10.7386C83.9071 10.7386 84.9782 11.0199 85.8929 11.5824C86.8077 12.1449 87.5179 12.9347 88.0236 13.9517C88.5293 14.9687 88.7821 16.1562 88.7821 17.5142C88.7821 18.8665 88.5293 20.0483 88.0236 21.0597C87.5179 22.071 86.8077 22.858 85.8929 23.4205C84.9782 23.983 83.9071 24.2642 82.6799 24.2642ZM82.6884 22.125C83.4838 22.125 84.1429 21.9148 84.6657 21.4943C85.1884 21.0739 85.5748 20.5142 85.8248 19.8153C86.0804 19.1165 86.2083 18.3466 86.2083 17.5057C86.2083 16.6705 86.0804 15.9034 85.8248 15.2045C85.5748 14.5 85.1884 13.9347 84.6657 13.5085C84.1429 13.0824 83.4838 12.8693 82.6884 12.8693C81.8873 12.8693 81.2225 13.0824 80.6941 13.5085C80.1713 13.9347 79.7821 14.5 79.5265 15.2045C79.2765 15.9034 79.1515 16.6705 79.1515 17.5057C79.1515 18.3466 79.2765 19.1165 79.5265 19.8153C79.7821 20.5142 80.1713 21.0739 80.6941 21.4943C81.2225 21.9148 81.8873 22.125 82.6884 22.125ZM91.0266 24V10.9091H93.4897V12.9886H93.626C93.8647 12.2841 94.2851 11.7301 94.8874 11.3267C95.4953 10.9176 96.1828 10.7131 96.9499 10.7131C97.109 10.7131 97.2965 10.7187 97.5124 10.7301C97.734 10.7415 97.9073 10.7557 98.0323 10.7727V13.2102C97.93 13.1818 97.7482 13.1506 97.4868 13.1165C97.2255 13.0767 96.9641 13.0568 96.7027 13.0568C96.1005 13.0568 95.5635 13.1847 95.0919 13.4403C94.626 13.6903 94.2567 14.0398 93.984 14.4886C93.7113 14.9318 93.5749 15.4375 93.5749 16.0057V24H91.0266ZM104.811 24.2642C103.521 24.2642 102.41 23.9886 101.478 23.4375C100.552 22.8807 99.8364 22.0994 99.3307 21.0938C98.8307 20.0824 98.5807 18.8977 98.5807 17.5398C98.5807 16.1989 98.8307 15.017 99.3307 13.9943C99.8364 12.9716 100.541 12.1733 101.444 11.5994C102.353 11.0256 103.416 10.7386 104.632 10.7386C105.37 10.7386 106.086 10.8608 106.78 11.1051C107.473 11.3494 108.095 11.733 108.646 12.2557C109.197 12.7784 109.632 13.4574 109.95 14.2926C110.268 15.1222 110.427 16.1307 110.427 17.3182V18.2216H100.021V16.3125H107.93C107.93 15.642 107.794 15.0483 107.521 14.5312C107.248 14.0085 106.865 13.5966 106.37 13.2955C105.882 12.9943 105.308 12.8438 104.649 12.8438C103.933 12.8438 103.308 13.0199 102.774 13.3722C102.245 13.7187 101.836 14.1733 101.547 14.7358C101.263 15.2926 101.12 15.8977 101.12 16.5511V18.0426C101.12 18.9176 101.274 19.6619 101.581 20.2756C101.893 20.8892 102.328 21.358 102.885 21.6818C103.442 22 104.092 22.1591 104.836 22.1591C105.319 22.1591 105.76 22.0909 106.157 21.9545C106.555 21.8125 106.899 21.6023 107.189 21.3239C107.478 21.0455 107.7 20.7017 107.853 20.2926L110.265 20.7273C110.072 21.4375 109.726 22.0597 109.226 22.5938C108.731 23.1222 108.109 23.5341 107.359 23.8295C106.615 24.1193 105.765 24.2642 104.811 24.2642Z" fill="#0A0A0A"/>
</svg>
